<?xml version="1.0" encoding="utf-8"?>
<!-- Generator: Adobe Illustrator 16.0.0, SVG Export Plug-In . SVG Version: 6.00 Build 0)  -->
<!DOCTYPE svg PUBLIC "-//W3C//DTD SVG 1.1//EN" "http://www.w3.org/Graphics/SVG/1.1/DTD/svg11.dtd">
<svg version="1.1" id="Layer_1" xmlns="http://www.w3.org/2000/svg" xmlns:xlink="http://www.w3.org/1999/xlink" x="0px" y="0px"
	 width="22px" height="36px" viewBox="0 0 22 36" enable-background="new 0 0 22 36" xml:space="preserve">
<path fill="#FFFFFF" d="M12.488,9.593c0.498,0,0.998-0.192,1.376-0.575c0.751-0.76,0.743-1.985-0.017-2.736L8.937,1.43
	C8.572,1.069,8.077,0.868,7.565,0.871c-0.514,0.003-1.004,0.21-1.365,0.575L1.413,6.291C0.662,7.051,0.669,8.276,1.43,9.027
	c0.76,0.751,1.985,0.744,2.736-0.017l1.497-1.515C5.663,7.513,5.664,7.53,5.665,7.547c0.153,2.174,0.171,4.416,0.612,6.557
	c0.882,4.284,3.822,7.074,7.057,9.729c1.743,1.432,2.936,3.469,3.633,5.59c0.361,1.093,0.543,2.842,0.635,3.948
	c0.084,1.001,0.925,1.769,1.929,1.759l0.039-0.001c1.114-0.011,1.983-0.966,1.892-2.076c-0.108-1.295-0.327-3.31-0.771-4.698
	c-0.6-1.873-1.475-3.665-2.756-5.168c-1.252-1.47-2.78-2.668-4.176-3.993c-1.735-1.648-3.132-3.507-3.612-5.886
	c-0.389-1.925-0.472-3.877-0.607-5.843l1.589,1.57C11.505,9.407,11.997,9.593,12.488,9.593z"/>
</svg>
