<?xml version="1.0" encoding="utf-8"?>
<!-- Generator: Adobe Illustrator 16.2.0, SVG Export Plug-In . SVG Version: 6.00 Build 0)  -->
<!DOCTYPE svg PUBLIC "-//W3C//DTD SVG 1.1//EN" "http://www.w3.org/Graphics/SVG/1.1/DTD/svg11.dtd">
<svg version="1.1" id="Layer_1" xmlns="http://www.w3.org/2000/svg" xmlns:xlink="http://www.w3.org/1999/xlink" x="0px" y="0px"
	 width="40px" height="25px" viewBox="0 0 40 25" enable-background="new 0 0 40 25" xml:space="preserve">
<g>
	<path fill="#FFFFFF" d="M20.403,12.566l-8.924,7.891l-8.922-7.891c-0.583-0.585-1.533-0.585-2.117,0
		c-0.583,0.583-0.583,1.533,0,2.115l9.962,8.812c0.298,0.3,0.688,0.439,1.077,0.434c0.39,0.009,0.781-0.131,1.077-0.428l9.964-8.812
		c0.581-0.582,0.581-1.535,0-2.115C21.936,11.984,20.984,11.981,20.403,12.566z"/>
	<path fill="#FFFFFF" d="M10.399,12.816c0.297,0.298,0.688,0.44,1.077,0.435c0.39,0.006,0.784-0.137,1.077-0.435l9.961-8.812
		c0.593-0.584,0.593-1.531,0.006-2.117c-0.582-0.584-1.536-0.584-2.117,0l-8.924,7.891L2.558,1.887c-0.586-0.584-1.536-0.584-2.12,0
		c-0.583,0.583-0.583,1.533,0,2.117L10.399,12.816z"/>
</g>
</svg>
