<?xml version="1.0" encoding="utf-8"?>
<!-- Generator: Adobe Illustrator 16.2.0, SVG Export Plug-In . SVG Version: 6.00 Build 0)  -->
<!DOCTYPE svg PUBLIC "-//W3C//DTD SVG 1.1//EN" "http://www.w3.org/Graphics/SVG/1.1/DTD/svg11.dtd">
<svg version="1.1" id="Layer_1" xmlns="http://www.w3.org/2000/svg" xmlns:xlink="http://www.w3.org/1999/xlink" x="0px" y="0px"
	 width="25px" height="25px" viewBox="0 0 25 25" enable-background="new 0 0 25 25" xml:space="preserve">
<path fill="#FFFFFF" d="M23.862,5.044l-7.413,7.413l7.413,7.413c1.103,1.104,1.103,2.89,0,3.992
	c-0.551,0.552-1.273,0.827-1.996,0.827s-1.444-0.275-1.995-0.827l-7.415-7.413l-7.413,7.413c-0.551,0.552-1.274,0.827-1.996,0.827
	c-0.723,0-1.445-0.275-1.996-0.827c-1.103-1.102-1.103-2.889,0-3.992l7.413-7.413L1.052,5.044c-1.103-1.103-1.103-2.89,0-3.992
	c1.102-1.103,2.888-1.103,3.992,0l7.413,7.414l7.414-7.414c1.104-1.103,2.89-1.103,3.991,0C24.965,2.154,24.965,3.941,23.862,5.044z
	"/>
</svg>
