<?xml version="1.0" encoding="utf-8"?>
<!-- Generator: Adobe Illustrator 16.2.0, SVG Export Plug-In . SVG Version: 6.00 Build 0)  -->
<!DOCTYPE svg PUBLIC "-//W3C//DTD SVG 1.1//EN" "http://www.w3.org/Graphics/SVG/1.1/DTD/svg11.dtd">
<svg version="1.1" id="Layer_1" xmlns="http://www.w3.org/2000/svg" xmlns:xlink="http://www.w3.org/1999/xlink" x="0px" y="0px"
	 width="105px" height="70px" viewBox="0 0 105 70" enable-background="new 0 0 105 70" xml:space="preserve">
<g>
	<path fill="#FFFFFF" d="M79.064,21.201c-1.379,0-2.729,0.119-4.043,0.34C71.74,10.816,61.578,3,49.543,3
		C34.854,3,22.947,14.641,22.947,29.002c0,1.281,0.1,2.541,0.283,3.773c-0.705-0.08-1.418-0.135-2.145-0.135
		C11.098,32.641,3,40.557,3,50.32C3,60.083,11.098,68,21.086,68h57.979C92.285,68,103,57.523,103,44.6
		C103,31.678,92.285,21.201,79.064,21.201z"/>
</g>
</svg>
