<?xml version="1.0" encoding="utf-8"?>
<!-- Generator: Adobe Illustrator 16.2.0, SVG Export Plug-In . SVG Version: 6.00 Build 0)  -->
<!DOCTYPE svg PUBLIC "-//W3C//DTD SVG 1.1//EN" "http://www.w3.org/Graphics/SVG/1.1/DTD/svg11.dtd">
<svg version="1.1" id="Layer_1" xmlns="http://www.w3.org/2000/svg" xmlns:xlink="http://www.w3.org/1999/xlink" x="0px" y="0px"
	 width="154px" height="97px" viewBox="0 0 154 97" enable-background="new 0 0 154 97" xml:space="preserve">
<path fill="#FFFFFF" d="M133.522,41.297c0.019-0.569,0.165-1.102,0.165-1.672C133.688,18.847,116.841,2,96.063,2
	C81.972,2,69.837,9.845,63.389,21.309c-1.607-0.285-3.252-0.496-4.951-0.496c-12.328,0-22.698,7.955-26.538,18.978
	c-0.561-0.037-1.103-0.166-1.681-0.166C14.64,39.625,2,52.265,2,67.844s12.64,28.219,28.219,28.219h94.063
	c15.579,0,28.219-12.64,28.219-28.219C152.5,55.517,144.545,45.137,133.522,41.297z"/>
</svg>
