<?xml version="1.0" encoding="utf-8"?>
<!-- Generator: Adobe Illustrator 16.2.0, SVG Export Plug-In . SVG Version: 6.00 Build 0)  -->
<!DOCTYPE svg PUBLIC "-//W3C//DTD SVG 1.1//EN" "http://www.w3.org/Graphics/SVG/1.1/DTD/svg11.dtd">
<svg version="1.1" id="Layer_1" xmlns="http://www.w3.org/2000/svg" xmlns:xlink="http://www.w3.org/1999/xlink" x="0px" y="0px"
	 width="113px" height="155px" viewBox="0 0 113 155" enable-background="new 0 0 113 155" xml:space="preserve">
<path fill="#FFFFFF" d="M62.44,6.924c-1.39-1.894-3.407-2.98-5.538-2.98c-2.126,0-4.147,1.086-5.537,2.98
	C36.794,26.785,2.903,75.576,2.903,99.657c0,29.775,24.225,54.001,54,54.001s54-24.226,54-54.001
	C110.902,75.576,77.014,26.785,62.44,6.924z M56.902,148.119c-26.72,0-48.461-21.74-48.461-48.462
	c0-18.335,24.481-58.233,47.39-89.457c0.335-0.457,0.725-0.721,1.071-0.721c0.346,0,0.738,0.264,1.073,0.721
	c22.908,31.226,47.389,71.122,47.389,89.457C105.364,126.379,83.624,148.119,56.902,148.119z"/>
</svg>
