<?xml version="1.0" encoding="utf-8"?>
<!-- Generator: Adobe Illustrator 16.0.0, SVG Export Plug-In . SVG Version: 6.00 Build 0)  -->
<!DOCTYPE svg PUBLIC "-//W3C//DTD SVG 1.1//EN" "http://www.w3.org/Graphics/SVG/1.1/DTD/svg11.dtd">
<svg version="1.1" id="Layer_1" xmlns="http://www.w3.org/2000/svg" xmlns:xlink="http://www.w3.org/1999/xlink" x="0px" y="0px"
	 width="51px" height="72px" viewBox="0 0 51 72" enable-background="new 0 0 51 72" xml:space="preserve">
<g>
	<path fill="#FFFFFF" d="M14.312,17.751C-4.747,32.26,1.897,52.388,1.897,52.388c3.145,13.142,16.355,21.251,29.5,18.103
		c11.025-2.637,18.502-12.351,18.775-23.173c0.65-8.407-4.838-20.026-7.279-24.715c-0.605-1.159-0.756-1.016-1.057,0.257
		c-0.75,3.104-4.641,4.688-7.482-7.873C31.91,4.183,26.346,1.526,23.162,0.915c-1.289-0.245-1.284,0.058-0.186,0.771
		C25.483,3.313,27.697,7.565,14.312,17.751z"/>
</g>
</svg>
