<?xml version="1.0" encoding="utf-8"?>
<!-- Generator: Adobe Illustrator 16.0.0, SVG Export Plug-In . SVG Version: 6.00 Build 0)  -->
<!DOCTYPE svg PUBLIC "-//W3C//DTD SVG 1.1//EN" "http://www.w3.org/Graphics/SVG/1.1/DTD/svg11.dtd">
<svg version="1.1" id="Layer_1" xmlns="http://www.w3.org/2000/svg" xmlns:xlink="http://www.w3.org/1999/xlink" x="0px" y="0px"
	 width="61px" height="52px" viewBox="0 0 61 52" enable-background="new 0 0 61 52" xml:space="preserve">
<g>
	<path fill="#FFFFFF" d="M59.411,22.724L31.972,1.598c-0.788-0.608-1.888-0.608-2.678,0L1.856,22.724
		c-0.961,0.739-1.141,2.118-0.4,3.078c0.739,0.96,2.118,1.139,3.079,0.4l2.41-1.856v24.996c0,1.21,0.983,2.194,2.195,2.194h42.711
		c1.212,0,2.197-0.984,2.197-2.194V24.135l2.682,2.068c0.399,0.306,0.872,0.455,1.339,0.455c0.659,0,1.312-0.295,1.743-0.856
		C60.55,24.842,60.372,23.464,59.411,22.724z M27.435,47.145h-16.1V20.966l19.298-14.86l19.022,14.649v26.391l0,0H29.675"/>
</g>
</svg>
