<?xml version="1.0" encoding="utf-8"?>
<!-- Generator: Adobe Illustrator 16.0.0, SVG Export Plug-In . SVG Version: 6.00 Build 0)  -->
<!DOCTYPE svg PUBLIC "-//W3C//DTD SVG 1.1//EN" "http://www.w3.org/Graphics/SVG/1.1/DTD/svg11.dtd">
<svg version="1.1" id="Layer_1" xmlns="http://www.w3.org/2000/svg" xmlns:xlink="http://www.w3.org/1999/xlink" x="0px" y="0px"
	 width="62px" height="88px" viewBox="0 0 62 88" enable-background="new 0 0 62 88" xml:space="preserve">
<path fill="#FFFFFF" d="M46.65,1.566c0.638,6.331-30.604,14.727-38.426,32.881c-6.032,13.99,1.834,25.86,9.918,31.578
	C2.63,88.763,1.997,83.967,0.87,85.319l8.754,1.744c0,0,14.815-25.203,16.319-27.846c-0.058-0.058-4.068-3.634-7.439-7.806
	c-0.835-1.059-1.647-2.134-2.325-3.207c-0.677-1.072-1.262-2.104-1.619-3.058c-0.188-0.478-0.361-0.905-0.424-1.316
	c-0.076-0.404-0.208-0.743-0.182-1.049c-0.006-0.584-0.01-0.917-0.01-0.917s0.046,0.333,0.119,0.91
	c0.003,0.285,0.177,0.611,0.295,0.983c0.107,0.384,0.323,0.789,0.563,1.216c0.448,0.875,1.132,1.809,1.904,2.76
	c0.779,0.946,1.685,1.902,2.613,2.827c1.883,1.835,3.917,3.515,5.469,4.726c1.062,0.824,1.863,1.41,2.284,1.709
	c1.514-2.695,3.048-5.539,4.596-8.535l-0.041,0.05c0,0-3.105-2.767-5.702-5.983c-0.638-0.811-1.262-1.637-1.778-2.457
	c-0.519-0.817-0.967-1.613-1.239-2.34c-0.146-0.361-0.277-0.691-0.326-1.011c-0.06-0.306-0.156-0.565-0.139-0.796
	c-0.003-0.444-0.006-0.701-0.006-0.701s0.033,0.25,0.089,0.694c0.004,0.218,0.136,0.466,0.226,0.758
	c0.081,0.292,0.248,0.597,0.431,0.931c0.344,0.664,0.869,1.38,1.459,2.106c0.598,0.726,1.29,1.456,2.002,2.167
	c1.442,1.404,3,2.687,4.188,3.616c0.774,0.604,1.358,1.032,1.69,1.271c1.646-3.238,3.285-6.619,4.894-10.134l-0.177,0.219
	c0,0-2.48-2.209-4.561-4.785c-0.516-0.65-1.011-1.31-1.425-1.96c-0.418-0.657-0.774-1.293-0.991-1.874
	c-0.119-0.292-0.218-0.556-0.262-0.806c-0.047-0.246-0.125-0.455-0.111-0.643c0-0.358-0.008-0.561-0.008-0.561
	s0.027,0.206,0.075,0.557c0,0.176,0.108,0.371,0.18,0.604c0.064,0.234,0.2,0.48,0.343,0.745c0.278,0.535,0.692,1.104,1.168,1.685
	c0.479,0.583,1.034,1.167,1.602,1.734c1.153,1.122,2.396,2.152,3.35,2.895c0.621,0.484,1.09,0.823,1.354,1.015
	c0.006-0.02,0.02-0.042,0.026-0.066c0,0,1.103-2.44,1.608-3.607c5.125-11.892,3.204-6.867-0.861,3.409
	c0.374-0.024,0.855-0.058,1.445-0.107c1.323-0.119,3.096-0.327,4.84-0.674c0.868-0.188,1.733-0.39,2.524-0.651
	c0.791-0.253,1.517-0.534,2.094-0.864c0.292-0.158,0.561-0.307,0.768-0.487c0.206-0.17,0.42-0.292,0.529-0.451
	c0.254-0.3,0.396-0.47,0.396-0.47s-0.122,0.185-0.342,0.514c-0.092,0.186-0.293,0.328-0.486,0.524
	c-0.189,0.212-0.44,0.391-0.723,0.593c-0.554,0.409-1.262,0.784-2.039,1.139c-0.78,0.361-1.636,0.678-2.498,0.971
	c-3.476,1.138-7.101,1.702-7.101,1.702l-0.019-0.201c-1.101,2.783-2.336,5.875-3.612,9.084c0.419-0.025,0.882-0.066,1.446-0.114
	c1.707-0.15,3.991-0.416,6.237-0.869c1.117-0.241,2.236-0.509,3.255-0.835s1.959-0.689,2.698-1.113
	c0.376-0.203,0.727-0.394,0.99-0.624c0.262-0.217,0.54-0.374,0.682-0.584c0.33-0.387,0.513-0.609,0.513-0.609
	s-0.155,0.241-0.44,0.67c-0.118,0.231-0.373,0.415-0.625,0.676c-0.243,0.269-0.569,0.506-0.933,0.761
	c-0.712,0.529-1.632,1.012-2.63,1.476c-1.005,0.462-2.107,0.869-3.225,1.246c-3.831,1.26-7.784,1.964-8.85,2.144
	c-1.182,2.97-2.886,5.98-4.04,8.91c0.469-0.034,1.494-0.074,2.118-0.129c1.962-0.177,4.582-0.483,7.16-0.999
	c1.283-0.277,2.563-0.576,3.729-0.956c1.169-0.375,2.244-0.796,3.1-1.28c0.435-0.228,0.835-0.447,1.134-0.712
	c0.305-0.256,0.623-0.431,0.783-0.669c0.377-0.44,0.591-0.695,0.591-0.695s-0.187,0.274-0.506,0.767
	c-0.143,0.268-0.435,0.485-0.719,0.776c-0.286,0.313-0.656,0.586-1.073,0.877c-0.814,0.603-1.87,1.159-3.021,1.687
	c-1.153,0.533-2.415,0.997-3.691,1.432c-4.352,1.432-9.486,1.985-10.766,2.203c-1.333,3.379-3.699,6.814-4.752,9.536
	c10.42,3.746,28.359,4.521,35.601-12.279C67.223,38.36,46.02-4.767,46.65,1.566z"/>
</svg>
