<?xml version="1.0" encoding="utf-8"?>
<!-- Generator: Adobe Illustrator 16.0.0, SVG Export Plug-In . SVG Version: 6.00 Build 0)  -->
<!DOCTYPE svg PUBLIC "-//W3C//DTD SVG 1.1//EN" "http://www.w3.org/Graphics/SVG/1.1/DTD/svg11.dtd">
<svg version="1.1" id="Layer_1" xmlns="http://www.w3.org/2000/svg" xmlns:xlink="http://www.w3.org/1999/xlink" x="0px" y="0px"
	 width="39px" height="24px" viewBox="0 0 39 24" enable-background="new 0 0 39 24" xml:space="preserve">
<g>
	<path fill="#7CBC42" d="M37.89,2.677c-0.278-0.113-0.723-0.347-1.252-0.489c-0.529-0.149-1.245-0.397-1.975-0.46
		c-0.735-0.077-1.568-0.1-2.48-0.056c-0.888,0.072-1.791,0.261-2.757,0.511c-0.968,0.25-1.852,0.665-2.795,1.119
		c-0.923,0.47-1.764,1.056-2.604,1.694c-0.797,0.659-1.55,1.389-2.24,2.165c-0.643,0.797-1.283,1.618-1.775,2.493
		c-0.507,0.87-0.945,1.764-1.262,2.679c-0.678,1.812-0.947,3.679-0.977,5.34c0.003,0.84,0.053,1.622,0.157,2.344
		c0.091,0.711,0.27,1.372,0.407,1.903c0.057,0.251,0.135,0.49,0.212,0.702c0.135-0.284,0.283-0.588,0.448-0.916
		c0.817-1.622,2.01-3.734,3.403-5.712c0.696-0.991,1.456-1.933,2.199-2.784c0.394-0.408,0.774-0.803,1.134-1.176
		c0.385-0.347,0.749-0.676,1.083-0.978c0.362-0.272,0.692-0.52,0.986-0.741c0.281-0.234,0.577-0.37,0.799-0.51
		c0.449-0.267,0.706-0.419,0.706-0.419s-0.245,0.173-0.672,0.473c-0.207,0.159-0.487,0.313-0.75,0.567
		c-0.271,0.24-0.576,0.51-0.913,0.804c-0.307,0.325-0.639,0.674-0.989,1.044c-0.323,0.394-0.663,0.809-1.015,1.239
		c-0.664,0.894-1.333,1.87-1.935,2.893c-1.21,2.036-2.208,4.189-2.879,5.829c-0.189,0.462-0.349,0.875-0.485,1.239
		c0.288-0.078,0.653-0.161,1.047-0.307c0.5-0.172,1.146-0.352,1.77-0.605c0.641-0.245,1.322-0.533,2.011-0.863
		c0.699-0.324,1.381-0.707,2.079-1.106c0.697-0.399,1.357-0.855,2.013-1.326c0.638-0.487,1.271-0.98,1.845-1.528
		c0.566-0.56,1.14-1.085,1.636-1.694c1.02-1.169,1.887-2.414,2.593-3.732c0.368-0.621,0.676-1.343,0.974-1.996
		c0.304-0.648,0.562-1.367,0.817-2.025c0.259-0.648,0.498-1.303,0.709-1.942c0.229-0.658,0.43-1.231,0.597-1.703
		c0.191-0.468,0.313-0.958,0.42-1.247c0.1-0.326,0.15-0.498,0.15-0.498S38.177,2.807,37.89,2.677z"/>
	<path fill="#7CBC42" d="M15.316,17.258c-0.991-0.693-1.932-1.455-2.784-2.199c-0.408-0.39-0.802-0.772-1.176-1.132
		c-0.347-0.385-0.674-0.749-0.979-1.084c-0.271-0.36-0.519-0.693-0.74-0.985c-0.234-0.282-0.368-0.577-0.509-0.799
		c-0.268-0.448-0.419-0.707-0.419-0.707s0.173,0.245,0.474,0.673c0.157,0.207,0.312,0.485,0.567,0.748
		c0.24,0.272,0.509,0.58,0.804,0.914c0.324,0.306,0.674,0.638,1.044,0.988c0.393,0.324,0.809,0.664,1.238,1.017
		c0.894,0.662,1.871,1.333,2.893,1.933c0.424,0.252,0.852,0.476,1.278,0.701c0.142-2.282,0.61-4.542,1.313-6.599
		c-0.402-0.52-0.81-1.032-1.259-1.5c-0.561-0.568-1.085-1.142-1.696-1.636c-1.167-1.019-2.414-1.886-3.731-2.594
		c-0.62-0.368-1.344-0.674-1.997-0.973C8.991,3.719,8.272,3.46,7.614,3.205C6.966,2.948,6.311,2.709,5.671,2.498
		C5.014,2.267,4.442,2.066,3.969,1.9C3.5,1.709,3.01,1.588,2.723,1.479c-0.324-0.098-0.498-0.15-0.498-0.15S2.129,1.486,1.998,1.771
		C1.886,2.049,1.651,2.494,1.509,3.023C1.36,3.551,1.111,4.267,1.051,4.997C0.972,5.734,0.95,6.568,0.995,7.478
		c0.07,0.888,0.259,1.789,0.509,2.758c0.251,0.966,0.666,1.852,1.119,2.796c0.47,0.921,1.056,1.76,1.696,2.603
		c0.659,0.797,1.389,1.55,2.165,2.239c0.796,0.644,1.618,1.282,2.494,1.775c0.868,0.508,1.763,0.947,2.678,1.263
		c1.812,0.679,3.676,0.948,5.338,0.978c0.071,0,0.132-0.006,0.199-0.011c-0.178-1.163-0.242-2.352-0.221-3.546
		C16.421,17.988,15.867,17.647,15.316,17.258z"/>
</g>
</svg>
