<?xml version="1.0" encoding="utf-8"?>
<!-- Generator: Adobe Illustrator 16.2.0, SVG Export Plug-In . SVG Version: 6.00 Build 0)  -->
<!DOCTYPE svg PUBLIC "-//W3C//DTD SVG 1.1//EN" "http://www.w3.org/Graphics/SVG/1.1/DTD/svg11.dtd">
<svg version="1.1" id="Layer_1" xmlns="http://www.w3.org/2000/svg" xmlns:xlink="http://www.w3.org/1999/xlink" x="0px" y="0px"
	 width="30px" height="21px" viewBox="0 0 30 21" enable-background="new 0 0 30 21" xml:space="preserve">
<g>
	<path fill="#7DBB00" d="M28.423,8.947H1.496C0.67,8.947,0,9.615,0,10.438s0.67,1.492,1.496,1.492h26.927
		c0.824,0,1.496-0.669,1.496-1.492S29.247,8.947,28.423,8.947z"/>
	<path fill="#7DBB00" d="M1.496,2.982h26.927c0.824,0,1.496-0.668,1.496-1.491C29.919,0.668,29.247,0,28.423,0H1.496
		C0.67,0,0,0.668,0,1.491C0,2.314,0.67,2.982,1.496,2.982z"/>
	<path fill="#7DBB00" d="M28.423,17.895H1.496C0.67,17.895,0,18.563,0,19.385s0.67,1.49,1.496,1.49h26.927
		c0.824,0,1.496-0.669,1.496-1.49C29.919,18.564,29.247,17.895,28.423,17.895z"/>
</g>
</svg>
