<?xml version="1.0" encoding="utf-8"?>
<!-- Generator: Adobe Illustrator 16.2.0, SVG Export Plug-In . SVG Version: 6.00 Build 0)  -->
<!DOCTYPE svg PUBLIC "-//W3C//DTD SVG 1.1//EN" "http://www.w3.org/Graphics/SVG/1.1/DTD/svg11.dtd">
<svg version="1.1" id="Layer_1" xmlns="http://www.w3.org/2000/svg" xmlns:xlink="http://www.w3.org/1999/xlink" x="0px" y="0px"
	 width="26px" height="27px" viewBox="0 0 26 27" enable-background="new 0 0 26 27" xml:space="preserve">
<path fill="#7CBC42" d="M6.461,19.691C5.175,18.1,3.522,15.22,4.299,11.536l1.074,0.312c0.593,0.173,0.949-0.53,0.795-1.569
	L5.543,6.06C5.389,5.021,4.671,4.789,3.938,5.543L0.804,8.77c-0.732,0.754-0.963,1.47-0.515,1.6c0.447,0.13,0.81,0.235,0.81,0.235
	c-1.284,5.538,1.452,9.697,3.227,11.708c0.695,0.788,1.821,0.757,2.401,0.043C7.305,21.643,7.121,20.51,6.461,19.691z"/>
<path fill="#7CBC42" d="M9.071,2.781c0.331,0.858,1.404,1.261,2.441,1.096c1.983-0.316,5.218-0.321,7.991,2.05l-0.61,0.587
	c-0.338,0.324,0.182,0.898,1.159,1.284l3.971,1.559c0.978,0.383,1.536-0.123,1.248-1.133l-1.237-4.325
	c-0.288-1.01-0.881-1.484-1.324-1.059c-0.441,0.426-0.8,0.771-0.8,0.771c-2.812-2.534-5.972-3.207-8.523-3.207
	c-1.194,0-2.254,0.146-3.083,0.315C9.275,0.931,8.742,1.924,9.071,2.781z"/>
<path fill="#7CBC42" d="M24.473,13.874c-0.918-0.059-1.733,0.748-2.018,1.759c-0.537,1.906-1.86,4.795-5.08,6.336l-0.271-0.779
	c-0.148-0.43-0.886-0.189-1.644,0.537l-3.078,2.951c-0.758,0.729-0.531,1.447,0.507,1.609l4.443,0.688
	c1.039,0.16,1.715-0.187,1.51-0.776c-0.204-0.59-0.37-1.068-0.37-1.068c5.011-2.212,6.756-6.717,7.355-9.275
	C26.067,14.834,25.39,13.933,24.473,13.874z"/>
</svg>
