<?xml version="1.0" encoding="utf-8"?>
<!-- Generator: Adobe Illustrator 16.0.0, SVG Export Plug-In . SVG Version: 6.00 Build 0)  -->
<!DOCTYPE svg PUBLIC "-//W3C//DTD SVG 1.1//EN" "http://www.w3.org/Graphics/SVG/1.1/DTD/svg11.dtd">
<svg version="1.1" id="Layer_1" xmlns="http://www.w3.org/2000/svg" xmlns:xlink="http://www.w3.org/1999/xlink" x="0px" y="0px"
	 width="77px" height="77px" viewBox="0 0 77 77" enable-background="new 0 0 77 77" xml:space="preserve">
<g>
	<path fill="#FFFFFF" d="M5.069,36.44c0.067,0.068,0.174,0.158,0.316,0.271C9.081,26.922,17.85,18.032,17.85,18.032
		c-4.123,4.943-6.254,15.521-7.161,21.41c4.111,1.376,9.78,1.714,14.754-3.305c8.592-8.673-1.309-19.846,13.788-29.846
		c0,0-19.406-5.339-31.787,7.154C-4.939,25.94,3.987,35.368,5.069,36.44z"/>
	<path fill="#FFFFFF" d="M66.865,46.21c0,0,13.447-14.968,7.805-31.629C69.031-2.08,56.607,1.691,55.166,2.179
		c-0.09,0.03-0.223,0.085-0.385,0.162c7.105,7.682,11.137,19.5,11.137,19.5C63.342,15.942,54.832,9.307,49.969,5.862
		c-3.07,3.062-5.906,7.982-3.639,14.677C50.248,32.103,64.668,28.239,66.865,46.21z"/>
	<path fill="#FFFFFF" d="M59.994,57.599c-1.203-4.167-4.146-9.022-11.105-10.26c-12.021-2.141-15.583,12.356-32.391,5.623
		c0,0,6.637,18.998,23.953,22.084c17.318,3.081,20-9.621,20.268-11.119c0.018-0.095,0.031-0.233,0.043-0.415
		c-10.154,2.524-22.453,0.362-22.453,0.362C44.719,64.458,54.635,60.199,59.994,57.599z"/>
</g>
</svg>
