<?xml version="1.0" encoding="utf-8"?>
<!-- Generator: Adobe Illustrator 16.0.0, SVG Export Plug-In . SVG Version: 6.00 Build 0)  -->
<!DOCTYPE svg PUBLIC "-//W3C//DTD SVG 1.1//EN" "http://www.w3.org/Graphics/SVG/1.1/DTD/svg11.dtd">
<svg version="1.1" id="Layer_1" xmlns="http://www.w3.org/2000/svg" xmlns:xlink="http://www.w3.org/1999/xlink" x="0px" y="0px"
	 width="60px" height="77px" viewBox="0 0 60 77" enable-background="new 0 0 60 77" xml:space="preserve">
<g>
	<g>
		<path fill="#FFFFFF" d="M52.993,10.154h-4.574c-0.651,0-1.185-0.526-1.185-1.18V6.908c0-3.256-2.647-5.906-5.902-5.906h-23.03
			c-3.256,0-5.905,2.649-5.905,5.906v2.065c0,0.654-0.529,1.18-1.181,1.18H6.639c-3.26,0-5.904,2.643-5.904,5.906v4.429
			c0,0.652,0.529,1.182,1.182,1.182h55.804c0.652,0,1.179-0.529,1.179-1.182V16.06C58.899,12.797,56.256,10.154,52.993,10.154z
			 M42.514,8.974c0,0.654-0.525,1.18-1.182,1.18h-23.03c-0.652,0-1.182-0.526-1.182-1.18V6.908c0-0.652,0.529-1.182,1.182-1.182
			h23.03c0.652,0,1.182,0.53,1.182,1.182V8.974z"/>
		<path fill="#FFFFFF" d="M56.536,25.288H3.096c-1.305,0-2.255,1.052-2.124,2.349l4.67,46.012c0.132,1.297,1.297,2.35,2.6,2.35
			h43.106c1.306,0,2.471-1.053,2.604-2.35l4.707-46.012C58.793,26.339,57.841,25.288,56.536,25.288z M29.253,60.477
			c-0.002,0.654-0.529,1.18-1.182,1.18l-5.868-0.004c-0.654,0-1.521-0.406-1.939-0.902l-3.507-4.193
			c-0.418-0.5-0.561-1.396-0.321-2.002l0.45-1.127c0.241-0.607-0.055-1.293-0.659-1.539c-0.413-0.162-0.884-0.352-1.297-0.52
			c-0.602-0.246-0.564-0.563,0.077-0.678l4.749-0.889c0.641-0.123,1.472,0.209,1.854,0.734c0.787,1.086,2.063,2.844,2.844,3.936
			c0.381,0.525,0.188,0.773-0.419,0.525l-1.227-0.484c-0.604-0.244-1.16-0.281-1.236-0.086c-0.078,0.195,0.198,0.76,0.618,1.26
			l0.283,0.34c0.419,0.502,1.287,0.904,1.939,0.904l3.662,0.004c0.652,0,1.18,0.527,1.18,1.178V60.477z M30.11,44.932l1.165-0.627
			c0.572-0.309,0.958-0.711,0.855-0.895c-0.096-0.188-0.709-0.336-1.362-0.336H30.33c-0.654,0-1.521,0.406-1.941,0.904l-2.35,2.803
			c-0.421,0.504-1.165,0.57-1.665,0.146l-1.811-1.514c-0.501-0.416-0.566-1.166-0.146-1.66l3.767-4.498
			c0.421-0.503,1.287-0.906,1.941-0.906h5.464c0.653,0,1.432,0.463,1.74,1.039l0.576,1.064c0.311,0.576,1.029,0.791,1.602,0.48
			c0.394-0.211,0.839-0.449,1.232-0.656c0.578-0.307,0.792-0.074,0.472,0.492l-2.363,4.215c-0.319,0.566-1.104,0.992-1.758,0.949
			c-1.338-0.09-3.508-0.242-4.84-0.344C29.598,45.545,29.538,45.244,30.11,44.932z M43.586,56.363l-2.91,4.621
			c-0.345,0.553-1.154,0.965-1.808,0.922l-1.211-0.084c-0.653-0.039-1.216,0.453-1.262,1.105c-0.029,0.443-0.066,0.949-0.101,1.391
			c-0.046,0.654-0.358,0.713-0.673,0.135l-2.303-4.248c-0.307-0.572-0.249-1.465,0.137-1.99c0.788-1.082,2.07-2.836,2.866-3.916
			c0.389-0.521,0.679-0.412,0.632,0.24l-0.087,1.318c-0.039,0.645,0.095,1.188,0.301,1.201c0.21,0.016,0.659-0.424,1.012-0.973
			l0.233-0.375c0.346-0.553,0.466-1.498,0.266-2.125l-1.121-3.48c-0.2-0.627,0.139-1.289,0.762-1.492l2.251-0.723
			c0.618-0.195,1.285,0.141,1.484,0.764l1.798,5.582C44.052,54.857,43.936,55.811,43.586,56.363z"/>
	</g>
</g>
</svg>
