<?xml version="1.0" encoding="utf-8"?>
<!-- Generator: Adobe Illustrator 16.2.0, SVG Export Plug-In . SVG Version: 6.00 Build 0)  -->
<!DOCTYPE svg PUBLIC "-//W3C//DTD SVG 1.1//EN" "http://www.w3.org/Graphics/SVG/1.1/DTD/svg11.dtd">
<svg version="1.1" id="Layer_1" xmlns="http://www.w3.org/2000/svg" xmlns:xlink="http://www.w3.org/1999/xlink" x="0px" y="0px"
	 width="80px" height="75px" viewBox="0 0 80 75" enable-background="new 0 0 80 75" xml:space="preserve">
<path fill="#FFFFFF" d="M1.372,23.296L1.372,23.296l7.961-5.217c0.558-0.364,1.033-0.123,1.071,0.532l0.535,9.512
	c0.038,0.657-0.408,0.951-0.998,0.651l-2.025-1.022c-0.59-0.295-1.233-0.026-1.411,0.608c-0.831,2.962-1.253,6.022-1.253,9.141
	c0,18.663,15.18,33.851,33.846,33.851c9.247,0,17.885-3.661,24.317-10.309c0.46-0.474,1.217-0.484,1.69-0.027
	c0.476,0.46,0.486,1.217,0.026,1.688c-6.887,7.112-16.133,11.031-26.034,11.031c-19.98,0-36.233-16.256-36.233-36.235
	c0-3.497,0.492-6.929,1.463-10.233c0.187-0.633-0.118-1.385-0.708-1.68l-2.18-1.095C0.847,24.188,0.814,23.655,1.372,23.296z
	 M69.314,40.841l2.209,0.639c0.635,0.184,1.216-0.194,1.276-0.854c0.098-1.038,0.15-2.082,0.15-3.126
	C72.942,18.839,57.758,3.653,39.098,3.653c-7.572,0-14.733,2.448-20.71,7.072c-0.52,0.407-1.271,0.31-1.677-0.211
	c-0.403-0.523-0.303-1.273,0.216-1.678c6.396-4.955,14.061-7.571,22.171-7.571c19.979,0,36.234,16.256,36.234,36.235
	c0,1.271-0.064,2.543-0.196,3.803c-0.067,0.657,0.37,1.333,1.002,1.52l2.317,0.671c0.631,0.182,0.759,0.706,0.285,1.16l-6.867,6.594
	c-0.477,0.457-0.989,0.308-1.149-0.33l-2.271-9.249C68.295,41.03,68.681,40.657,69.314,40.841z"/>
</svg>
