<?xml version="1.0" encoding="utf-8"?>
<!-- Generator: Adobe Illustrator 16.0.0, SVG Export Plug-In . SVG Version: 6.00 Build 0)  -->
<!DOCTYPE svg PUBLIC "-//W3C//DTD SVG 1.1//EN" "http://www.w3.org/Graphics/SVG/1.1/DTD/svg11.dtd">
<svg version="1.1" id="Layer_1" xmlns="http://www.w3.org/2000/svg" xmlns:xlink="http://www.w3.org/1999/xlink" x="0px" y="0px"
	 width="15px" height="38px" viewBox="0 0 15 38" enable-background="new 0 0 15 38" xml:space="preserve">
<g>
	<g>
		<g>
			<path fill="#FFFFFF" d="M4.607,24.467c2.382,2.004,3.531,4.039,3.419,6.047c-0.174,3.102-3.317,5.238-3.35,5.26l0.83,1.25
				c0.156-0.104,3.797-2.559,4.02-6.416c0.144-2.51-1.187-4.961-3.949-7.289c-2.382-2.006-3.531-4.041-3.419-6.043
				c0.175-3.092,3.317-5.218,3.348-5.238l-0.83-1.253c-0.151,0.102-3.792,2.546-4.014,6.393C0.516,19.684,1.844,22.137,4.607,24.467
				z"/>
		</g>
	</g>
	<g>
		<g>
			<path fill="#FFFFFF" d="M7.772,16.761c0.553,3.234,3.64,4.942,3.769,5.014l0.717-1.32c-0.025-0.014-2.573-1.423-3.006-3.945
				c-0.292-1.733,0.479-3.629,2.3-5.634c2.311-2.545,3.193-4.789,2.635-6.671c-0.729-2.433-3.577-3.198-3.699-3.229l-0.378,1.455
				c0.023,0.006,2.16,0.6,2.639,2.207c0.394,1.323-0.404,3.132-2.307,5.231C8.295,12.233,7.398,14.552,7.772,16.761z"/>
		</g>
	</g>
</g>
</svg>
