<?xml version="1.0" encoding="utf-8"?>
<!-- Generator: Adobe Illustrator 16.2.0, SVG Export Plug-In . SVG Version: 6.00 Build 0)  -->
<!DOCTYPE svg PUBLIC "-//W3C//DTD SVG 1.1//EN" "http://www.w3.org/Graphics/SVG/1.1/DTD/svg11.dtd">
<svg version="1.1" id="Layer_1" xmlns="http://www.w3.org/2000/svg" xmlns:xlink="http://www.w3.org/1999/xlink" x="0px" y="0px"
	 width="65px" height="64px" viewBox="0 0 65 64" enable-background="new 0 0 65 64" xml:space="preserve">
<g>
	<path fill="#FFFFFF" d="M10.128,35.271c0.099-0.074,0.156-0.189,0.156-0.313v-5.027c0-0.122-0.057-0.239-0.156-0.315
		c-0.099-0.075-0.224-0.1-0.345-0.066l-9.34,2.512c-0.346,0.093-0.346,0.67,0,0.765l9.34,2.514
		C9.9,35.371,10.029,35.346,10.128,35.271z"/>
	<path fill="#FFFFFF" d="M64.17,32.061l-9.337-2.512c-0.121-0.032-0.247-0.007-0.346,0.066c-0.1,0.075-0.152,0.193-0.152,0.315
		v5.027c0,0.124,0.053,0.239,0.152,0.313c0.099,0.078,0.225,0.1,0.346,0.068l9.337-2.514C64.517,32.731,64.517,32.154,64.17,32.061z
		"/>
	<path fill="#FFFFFF" d="M34.68,53.79h-5.027c-0.125,0-0.244,0.056-0.312,0.154c-0.079,0.099-0.104,0.226-0.071,0.342l2.512,9.341
		c0.095,0.347,0.674,0.347,0.767,0l2.513-9.341c0.029-0.116,0.004-0.243-0.069-0.342C34.92,53.846,34.804,53.79,34.68,53.79z"/>
	<path fill="#FFFFFF" d="M29.654,11.099h5.025c0.126,0,0.24-0.057,0.314-0.156c0.073-0.099,0.099-0.224,0.069-0.344L32.548,1.26
		c-0.091-0.346-0.672-0.346-0.767,0l-2.51,9.339c-0.034,0.118-0.008,0.245,0.071,0.342C29.409,11.04,29.53,11.099,29.654,11.099z"/>
	<path fill="#FFFFFF" d="M15.294,45.759c-0.086-0.087-0.21-0.129-0.329-0.111c-0.125,0.017-0.23,0.09-0.294,0.193l-4.825,8.384
		c-0.181,0.31,0.227,0.718,0.542,0.54l8.38-4.827c0.108-0.06,0.177-0.169,0.198-0.29c0.013-0.124-0.029-0.244-0.116-0.332
		L15.294,45.759z"/>
	<path fill="#FFFFFF" d="M49.035,19.129c0.087,0.088,0.211,0.128,0.335,0.111c0.119-0.017,0.224-0.089,0.293-0.194l4.824-8.383
		c0.177-0.31-0.23-0.719-0.545-0.54l-8.382,4.827c-0.103,0.059-0.177,0.168-0.193,0.292c-0.017,0.122,0.027,0.244,0.113,0.331
		L49.035,19.129z"/>
	<path fill="#FFFFFF" d="M47.732,45.841c-0.063-0.104-0.17-0.177-0.288-0.193c-0.127-0.018-0.248,0.024-0.335,0.115l-3.555,3.553
		c-0.086,0.088-0.13,0.212-0.113,0.332c0.019,0.121,0.087,0.23,0.196,0.29l8.379,4.827c0.313,0.178,0.722-0.23,0.545-0.54
		L47.732,45.841z"/>
	<path fill="#FFFFFF" d="M12.777,19.078c0.053,0.1,0.152,0.163,0.268,0.173c0.117,0.01,0.235-0.036,0.321-0.122l3.556-3.556
		c0.086-0.087,0.133-0.206,0.121-0.321c-0.005-0.114-0.071-0.215-0.169-0.268l-7.749-4.198c-0.289-0.153-0.701,0.254-0.544,0.544
		L12.777,19.078z"/>
</g>
</svg>
