<?xml version="1.0" encoding="utf-8"?>
<!-- Generator: Adobe Illustrator 16.2.0, SVG Export Plug-In . SVG Version: 6.00 Build 0)  -->
<!DOCTYPE svg PUBLIC "-//W3C//DTD SVG 1.1//EN" "http://www.w3.org/Graphics/SVG/1.1/DTD/svg11.dtd">
<svg version="1.1" id="Layer_1" xmlns="http://www.w3.org/2000/svg" xmlns:xlink="http://www.w3.org/1999/xlink" x="0px" y="0px"
	 width="205px" height="205px" viewBox="0 0 205 205" enable-background="new 0 0 205 205" xml:space="preserve">
<path fill="#FFFFFF" d="M77.69,55.071c-0.305,0-0.598-0.167-0.745-0.456L65.42,32.069c-0.21-0.411-0.047-0.916,0.365-1.126
	c0.411-0.208,0.914-0.044,1.125,0.366l11.525,22.547c0.209,0.41,0.046,0.915-0.365,1.125C77.948,55.043,77.818,55.071,77.69,55.071z
	 M58.089,72.306c0.266-0.378,0.175-0.9-0.203-1.167L37.199,56.541c-0.376-0.265-0.899-0.176-1.167,0.201
	c-0.266,0.378-0.177,0.9,0.202,1.167l20.689,14.6c0.146,0.104,0.315,0.152,0.481,0.152C57.668,72.658,57.925,72.537,58.089,72.306z
	 M48.461,96.934c0.061-0.456-0.263-0.878-0.721-0.938l-25.106-3.299c-0.455-0.063-0.879,0.263-0.939,0.722
	c-0.061,0.456,0.263,0.878,0.721,0.938l25.107,3.298c0.037,0.005,0.074,0.008,0.109,0.008
	C48.047,97.662,48.407,97.354,48.461,96.934z M27.143,133.049l23.758-8.759c0.432-0.161,0.655-0.642,0.495-1.072
	c-0.161-0.436-0.64-0.656-1.074-0.496l-23.756,8.76c-0.434,0.16-0.656,0.641-0.496,1.074c0.125,0.337,0.445,0.545,0.785,0.545
	C26.951,133.1,27.048,133.086,27.143,133.049z M49.328,165.102l16.954-18.806c0.311-0.345,0.281-0.872-0.062-1.184
	c-0.345-0.309-0.872-0.28-1.183,0.063l-16.953,18.805c-0.31,0.344-0.281,0.87,0.062,1.184c0.16,0.145,0.359,0.213,0.561,0.213
	C48.935,165.376,49.163,165.285,49.328,165.102z M83.873,183.155l6.264-24.534c0.113-0.45-0.158-0.905-0.605-1.021
	c-0.45-0.12-0.903,0.156-1.017,0.604l-6.263,24.538c-0.113,0.448,0.157,0.902,0.604,1.016c0.07,0.019,0.14,0.026,0.207,0.026
	C83.437,183.785,83.776,183.533,83.873,183.155z M122.235,184.072c0.448-0.105,0.728-0.556,0.619-1.007l-5.871-24.632
	c-0.106-0.449-0.559-0.722-1.007-0.621c-0.45,0.108-0.729,0.559-0.62,1.009l5.87,24.631c0.092,0.386,0.435,0.645,0.813,0.645
	C122.104,184.097,122.171,184.089,122.235,184.072z M157.237,166.033c0.349-0.303,0.382-0.832,0.078-1.184l-16.655-19.07
	c-0.305-0.348-0.831-0.386-1.181-0.078c-0.348,0.304-0.383,0.833-0.079,1.181l16.654,19.073c0.166,0.188,0.398,0.284,0.63,0.284
	C156.883,166.239,157.076,166.17,157.237,166.033z M179.829,133.781c0.169-0.43-0.047-0.915-0.478-1.081l-23.617-9.136
	c-0.431-0.165-0.914,0.046-1.081,0.479c-0.167,0.429,0.049,0.917,0.48,1.081l23.616,9.136c0.097,0.037,0.198,0.058,0.301,0.058
	C179.385,134.314,179.702,134.111,179.829,133.781z M158.937,98.547l25.152-2.899c0.458-0.052,0.787-0.468,0.734-0.927
	c-0.054-0.46-0.46-0.796-0.927-0.735l-25.153,2.897c-0.458,0.053-0.786,0.468-0.733,0.928c0.047,0.427,0.412,0.741,0.83,0.741
	C158.871,98.552,158.904,98.551,158.937,98.547z M149.938,73.249l20.921-14.268c0.381-0.262,0.479-0.781,0.219-1.164
	c-0.26-0.381-0.778-0.476-1.163-0.218l-20.921,14.268c-0.382,0.261-0.479,0.781-0.219,1.162c0.162,0.238,0.425,0.365,0.691,0.365
	C149.63,73.395,149.794,73.348,149.938,73.249z M130.208,55.043l11.882-22.362c0.218-0.408,0.063-0.913-0.347-1.13
	c-0.406-0.22-0.916-0.062-1.13,0.346L128.73,54.258c-0.216,0.409-0.062,0.913,0.348,1.131c0.125,0.066,0.258,0.098,0.39,0.098
	C129.769,55.486,130.059,55.325,130.208,55.043z M104.269,48.105l0.115-25.321c0-0.461-0.371-0.838-0.834-0.84
	c-0.454,0.05-0.835,0.372-0.839,0.833l-0.114,25.32c-0.002,0.462,0.371,0.838,0.833,0.841c0.002,0,0.002,0,0.004,0
	C103.894,48.936,104.266,48.565,104.269,48.105z M90.732,47.927c0.45-0.105,0.729-0.554,0.624-1.005L81.36,4.237
	c-0.104-0.451-0.557-0.726-1.004-0.624c-0.449,0.105-0.729,0.556-0.624,1.005l9.996,42.688c0.091,0.387,0.434,0.646,0.813,0.646
	C90.603,47.949,90.669,47.943,90.732,47.927z M67.182,59.949c0.348-0.302,0.386-0.831,0.083-1.18L38.558,25.633
	c-0.305-0.348-0.832-0.386-1.181-0.084c-0.35,0.303-0.386,0.832-0.083,1.181l28.708,33.136c0.165,0.19,0.398,0.287,0.632,0.287
	C66.826,60.153,67.022,60.085,67.182,59.949z M51.925,81.55c0.169-0.431-0.044-0.915-0.475-1.084L10.624,64.488
	c-0.426-0.168-0.915,0.043-1.083,0.475c-0.169,0.43,0.043,0.915,0.475,1.083L50.84,82.024c0.101,0.039,0.204,0.057,0.305,0.057
	C51.479,82.081,51.793,81.88,51.925,81.55z M4.158,113.539l43.571-4.847c0.458-0.051,0.789-0.467,0.739-0.923
	c-0.051-0.459-0.475-0.789-0.923-0.739l-43.573,4.847c-0.458,0.052-0.789,0.463-0.739,0.922c0.048,0.429,0.41,0.744,0.831,0.744
	C4.096,113.543,4.127,113.543,4.158,113.539z M21.066,158.306l36.315-24.562c0.384-0.26,0.484-0.778,0.224-1.16
	c-0.258-0.381-0.778-0.485-1.161-0.225l-36.317,24.563c-0.383,0.256-0.483,0.776-0.225,1.159c0.163,0.24,0.426,0.368,0.695,0.368
	C20.759,158.449,20.922,158.403,21.066,158.306z M56.858,190.069l20.722-38.638c0.22-0.405,0.065-0.912-0.342-1.13
	c-0.405-0.22-0.914-0.065-1.132,0.341l-20.723,38.636c-0.219,0.405-0.064,0.913,0.341,1.133c0.125,0.069,0.262,0.1,0.396,0.1
	C56.417,190.51,56.707,190.35,56.858,190.069z M103.32,201.534l0.368-43.839c0.004-0.461-0.367-0.84-0.829-0.843
	c-0.002,0-0.005,0-0.008,0c-0.457,0-0.831,0.37-0.835,0.83l-0.37,43.839c-0.003,0.461,0.368,0.839,0.829,0.842
	c0.002,0,0.006,0,0.007,0C102.94,202.361,103.313,201.991,103.32,201.534z M149.42,191.195c0.411-0.212,0.572-0.715,0.359-1.126
	l-20.067-38.981c-0.21-0.407-0.712-0.573-1.124-0.359c-0.412,0.211-0.575,0.717-0.36,1.127l20.066,38.981
	c0.147,0.288,0.44,0.452,0.746,0.452C149.165,191.289,149.297,191.258,149.42,191.195z M185.778,159.472
	c0.265-0.376,0.172-0.898-0.207-1.162l-35.894-25.173c-0.38-0.265-0.902-0.172-1.164,0.207c-0.267,0.377-0.174,0.898,0.201,1.163
	l35.896,25.172c0.147,0.102,0.315,0.15,0.481,0.15C185.356,159.829,185.612,159.705,185.778,159.472z M203.206,114.478
	c0.059-0.456-0.264-0.875-0.723-0.938l-43.485-5.58c-0.457-0.048-0.875,0.267-0.937,0.725c-0.059,0.459,0.266,0.878,0.725,0.938
	l43.483,5.582c0.034,0.003,0.072,0.006,0.106,0.006C202.792,115.209,203.149,114.899,203.206,114.478z M156.121,82.906l41.089-15.29
	c0.436-0.163,0.657-0.643,0.493-1.075c-0.163-0.435-0.644-0.655-1.075-0.492l-41.089,15.29c-0.436,0.162-0.657,0.643-0.494,1.076
	c0.127,0.336,0.445,0.545,0.784,0.545C155.926,82.959,156.025,82.941,156.121,82.906z M141.334,60.496l29.257-32.65
	c0.309-0.345,0.28-0.872-0.065-1.181c-0.343-0.307-0.871-0.279-1.18,0.064L140.087,59.38c-0.307,0.344-0.28,0.872,0.066,1.182
	c0.158,0.142,0.356,0.212,0.556,0.212C140.938,60.774,141.168,60.68,141.334,60.496z M117.82,47.536l10.708-42.511
	c0.112-0.449-0.158-0.903-0.606-1.016c-0.448-0.115-0.904,0.157-1.017,0.607l-10.709,42.513c-0.111,0.447,0.159,0.903,0.607,1.015
	c0.069,0.016,0.137,0.025,0.204,0.025C117.381,48.168,117.723,47.916,117.82,47.536z M70.087,52.238
	c0.384-0.256,0.485-0.777,0.229-1.16l-6.645-9.877c-0.256-0.384-0.777-0.487-1.16-0.228c-0.383,0.258-0.485,0.777-0.228,1.16
	l6.643,9.878c0.163,0.241,0.425,0.369,0.696,0.369C69.781,52.381,69.943,52.335,70.087,52.238z M50.371,73.953
	c0.219-0.405,0.068-0.913-0.338-1.135l-10.477-5.655c-0.407-0.222-0.913-0.067-1.134,0.338c-0.219,0.406-0.068,0.913,0.338,1.135
	l10.476,5.655c0.127,0.069,0.263,0.1,0.396,0.1C49.931,74.391,50.218,74.232,50.371,73.953z M43.014,102.348
	c0.006-0.462-0.364-0.842-0.826-0.848l-11.896-0.134c-0.004,0-0.007,0-0.01,0c-0.458,0-0.832,0.367-0.837,0.826
	c-0.005,0.461,0.366,0.841,0.827,0.846l11.896,0.137c0.004,0,0.007,0,0.01,0C42.635,103.175,43.009,102.805,43.014,102.348z
	 M38.755,137.443l10.596-5.414c0.411-0.21,0.574-0.715,0.365-1.127c-0.208-0.409-0.713-0.569-1.126-0.362l-10.596,5.414
	c-0.411,0.21-0.574,0.716-0.365,1.126c0.147,0.288,0.442,0.456,0.746,0.456C38.503,137.538,38.633,137.506,38.755,137.443z
	 M62.276,163.954l6.86-9.727c0.267-0.378,0.176-0.896-0.203-1.165c-0.376-0.265-0.898-0.175-1.166,0.202l-6.858,9.725
	c-0.266,0.378-0.176,0.9,0.203,1.165c0.145,0.105,0.314,0.153,0.481,0.153C61.854,164.308,62.112,164.185,62.276,163.954z
	 M95.421,176.479l1.55-11.802c0.06-0.457-0.263-0.878-0.721-0.938c-0.467-0.071-0.878,0.262-0.938,0.721l-1.549,11.8
	c-0.062,0.457,0.262,0.881,0.721,0.939c0.037,0.005,0.073,0.006,0.108,0.006C95.008,177.205,95.368,176.896,95.421,176.479z
	 M130.096,173.219c0.433-0.16,0.654-0.641,0.493-1.072l-4.113-11.169c-0.16-0.433-0.642-0.658-1.074-0.495
	c-0.433,0.159-0.654,0.641-0.495,1.074l4.113,11.169c0.126,0.336,0.445,0.545,0.785,0.545
	C129.902,173.271,129.999,173.255,130.096,173.219z M159.773,153.13c0.309-0.343,0.28-0.871-0.063-1.183l-8.841-7.971
	c-0.346-0.309-0.872-0.282-1.183,0.063c-0.31,0.343-0.282,0.871,0.062,1.183l8.842,7.971c0.161,0.145,0.359,0.217,0.559,0.217
	C159.377,153.409,159.605,153.313,159.773,153.13z M176.691,121.545c0.113-0.449-0.153-0.905-0.602-1.018l-11.532-2.946
	c-0.447-0.113-0.903,0.155-1.019,0.604c-0.112,0.45,0.158,0.903,0.604,1.018l11.53,2.946c0.072,0.018,0.142,0.026,0.21,0.026
	C176.257,122.172,176.597,121.923,176.691,121.545z M164.776,89.474l11.579-2.756c0.449-0.107,0.729-0.558,0.622-1.008
	s-0.561-0.724-1.009-0.621l-11.579,2.758c-0.449,0.107-0.727,0.558-0.622,1.007c0.094,0.385,0.438,0.643,0.814,0.643
	C164.647,89.498,164.712,89.489,164.776,89.474z M151.513,62.863l8.969-7.828c0.347-0.304,0.384-0.832,0.079-1.18
	c-0.307-0.35-0.835-0.385-1.181-0.082l-8.969,7.829c-0.347,0.305-0.382,0.833-0.079,1.181c0.164,0.188,0.396,0.286,0.631,0.286
	C151.157,63.069,151.353,63.001,151.513,62.863z M127.394,45.477l4.293-11.099c0.168-0.431-0.047-0.915-0.478-1.08
	c-0.431-0.168-0.914,0.047-1.082,0.477l-4.293,11.1c-0.167,0.43,0.048,0.915,0.481,1.082c0.098,0.038,0.198,0.057,0.299,0.057
	C126.948,46.013,127.267,45.81,127.394,45.477z M97.218,42.235c0.459-0.053,0.788-0.467,0.735-0.926l-1.362-11.822
	c-0.053-0.458-0.464-0.792-0.927-0.734c-0.459,0.053-0.788,0.467-0.734,0.927L96.291,41.5c0.05,0.426,0.412,0.741,0.83,0.741
	C97.153,42.239,97.186,42.238,97.218,42.235z M82.229,45.825c0.433-0.164,0.648-0.646,0.484-1.08l-4.237-11.124
	c-0.166-0.431-0.651-0.651-1.082-0.484c-0.43,0.165-0.647,0.649-0.482,1.082l4.237,11.123c0.127,0.333,0.445,0.54,0.78,0.54
	C82.03,45.881,82.131,45.862,82.229,45.825z M58.109,62.516c0.306-0.346,0.272-0.875-0.074-1.182l-8.923-7.879
	c-0.346-0.305-0.874-0.272-1.182,0.073c-0.306,0.347-0.272,0.876,0.074,1.182l8.924,7.879c0.158,0.14,0.355,0.209,0.554,0.209
	C57.712,62.798,57.944,62.703,58.109,62.516z M44.522,88.509c0.109-0.449-0.166-0.901-0.614-1.01L32.35,84.677
	c-0.45-0.11-0.901,0.164-1.009,0.614c-0.11,0.449,0.165,0.9,0.613,1.011l11.559,2.821c0.067,0.017,0.134,0.022,0.198,0.022
	C44.085,89.146,44.428,88.891,44.522,88.509z M32.432,121.732l11.544-2.878c0.449-0.112,0.722-0.566,0.609-1.015
	c-0.113-0.447-0.571-0.719-1.014-0.607l-11.545,2.879c-0.448,0.11-0.72,0.565-0.608,1.013c0.095,0.38,0.437,0.633,0.811,0.633
	C32.294,121.757,32.364,121.751,32.432,121.732z M49.346,152.876l8.881-7.92c0.346-0.308,0.375-0.837,0.068-1.181
	c-0.308-0.346-0.837-0.373-1.182-0.067l-8.882,7.92c-0.345,0.308-0.373,0.837-0.067,1.181c0.167,0.185,0.396,0.279,0.624,0.279
	C48.989,153.088,49.187,153.018,49.346,152.876z M78.798,172.575l4.178-11.146c0.162-0.431-0.057-0.911-0.49-1.077
	c-0.429-0.159-0.915,0.056-1.077,0.49l-4.178,11.146c-0.162,0.434,0.058,0.912,0.49,1.076c0.098,0.037,0.195,0.056,0.293,0.056
	C78.353,173.117,78.673,172.911,78.798,172.575z M113.307,177.247c0.462-0.059,0.784-0.477,0.728-0.934l-1.481-11.81
	c-0.056-0.459-0.473-0.783-0.931-0.725c-0.459,0.056-0.784,0.475-0.728,0.931l1.481,11.811c0.052,0.422,0.412,0.733,0.829,0.733
	C113.239,177.251,113.272,177.251,113.307,177.247z M146.758,164.391c0.381-0.263,0.475-0.784,0.21-1.165l-6.809-9.763
	c-0.264-0.378-0.784-0.473-1.165-0.207c-0.379,0.264-0.473,0.786-0.209,1.163l6.811,9.766c0.162,0.232,0.422,0.356,0.688,0.356
	C146.446,164.541,146.615,164.495,146.758,164.391z M170.39,137.451c0.211-0.409,0.051-0.916-0.357-1.128l-10.564-5.478
	c-0.408-0.215-0.916-0.055-1.127,0.357c-0.215,0.41-0.054,0.914,0.356,1.127l10.563,5.479c0.123,0.063,0.255,0.093,0.384,0.093
	C169.947,137.902,170.242,137.737,170.39,137.451z M166.037,103.519l11.902-0.067c0.464-0.001,0.836-0.381,0.832-0.84
	c-0.001-0.461-0.376-0.832-0.836-0.832c-0.002,0-0.003,0-0.005,0l-11.903,0.067c-0.462,0.002-0.835,0.379-0.831,0.841
	c0.001,0.458,0.376,0.831,0.836,0.831C166.034,103.519,166.035,103.519,166.037,103.519z M159.136,74.596l10.508-5.595
	c0.409-0.217,0.562-0.725,0.347-1.131c-0.217-0.405-0.726-0.56-1.131-0.347l-10.508,5.595c-0.408,0.218-0.563,0.724-0.347,1.131
	c0.15,0.283,0.44,0.442,0.738,0.442C158.877,74.693,159.012,74.663,159.136,74.596z M139.576,52.205l6.696-9.839
	c0.257-0.384,0.16-0.903-0.223-1.163c-0.381-0.26-0.901-0.159-1.162,0.221l-6.692,9.84c-0.261,0.382-0.159,0.902,0.221,1.162
	c0.143,0.098,0.308,0.144,0.469,0.144C139.152,52.572,139.415,52.443,139.576,52.205z M111.844,41.482l1.348-11.824
	c0.053-0.458-0.278-0.873-0.737-0.924c-0.478-0.061-0.872,0.278-0.925,0.736l-1.346,11.822c-0.054,0.458,0.278,0.873,0.735,0.925
	c0.034,0.003,0.064,0.005,0.097,0.005C111.436,42.225,111.796,41.909,111.844,41.482z"/>
</svg>
