<?xml version="1.0" encoding="utf-8"?>
<!-- Generator: Adobe Illustrator 16.2.0, SVG Export Plug-In . SVG Version: 6.00 Build 0)  -->
<!DOCTYPE svg PUBLIC "-//W3C//DTD SVG 1.1//EN" "http://www.w3.org/Graphics/SVG/1.1/DTD/svg11.dtd">
<svg version="1.1" id="Layer_1" xmlns="http://www.w3.org/2000/svg" xmlns:xlink="http://www.w3.org/1999/xlink" x="0px" y="0px"
	 width="355px" height="215px" viewBox="0 0 355 215" enable-background="new 0 0 355 215" xml:space="preserve">
<path fill="#FFFFFF" d="M352.381,164.982L293.929,28.497c-0.692-1.604-2.274-2.646-4.026-2.646L87.012,3.814
	c-0.023,0-0.041,0.003-0.06,0.003c-0.323,0.006-0.655,0.046-0.975,0.127c-0.086,0.019-0.172,0.059-0.251,0.083
	c-0.234,0.073-0.453,0.157-0.682,0.267c-0.104,0.054-0.201,0.116-0.308,0.175c-0.089,0.056-0.189,0.097-0.281,0.159l-7.499,5.356
	c-1.697,1.214-2.299,3.456-1.451,5.357l22.737,54.313L9.782,60.048c-0.013,0-0.028,0-0.038,0c-0.212,0.004-0.425,0.03-0.633,0.084
	c-0.051,0.012-0.104,0.037-0.155,0.052c-0.156,0.044-0.298,0.104-0.444,0.176c-0.065,0.03-0.13,0.07-0.196,0.107
	c-0.063,0.038-0.125,0.065-0.187,0.103L3.3,64.023c-1.09,0.783-1.481,2.229-0.934,3.454l41.48,99.067
	c0.45,1.016,1.465,1.671,2.576,1.671h56.711l2.761,9.323L85.16,191.36c-0.731,0.491-1.033,1.42-0.714,2.239
	c0.282,0.737,0.983,1.211,1.758,1.211c0.079,0,0.177,0,0.263-0.018l41.337-5.905l30.802-6.329c0.934-0.193,1.567-1.048,1.498-1.995
	c-0.076-0.942-0.844-1.688-1.786-1.733l-29.011-1.375v-9.247h10.199l0.38,0.909c0.705,1.579,2.271,2.595,4,2.595h11.859h1.78h74.39
	l4.283,14.472l-32.188,21.461c-1.135,0.759-1.602,2.201-1.11,3.475c0.44,1.145,1.534,1.878,2.729,1.878
	c0.138,0,0.277-0.006,0.417-0.027l64.165-9.165l47.807-9.827c1.442-0.302,2.439-1.622,2.321-3.093
	c-0.108-1.47-1.295-2.621-2.771-2.691l-45.026-2.136v-14.346h76.073c0.025,0.004,0.049,0.004,0.061,0
	c2.425,0,4.384-1.964,4.384-4.385C353.067,166.47,352.817,165.662,352.381,164.982z M331.489,138.501l-35.805-1.302l-6.511-4.521
	l-6.485-15.354l3.465-4.396l35.144,1.769L331.489,138.501z M122.535,127.67l-17.38-0.873l-4.617-3.213l-4.688-11.091l2.262-2.865
	l17.341,1.121L122.535,127.67z M131.762,102.225L119.876,74.03l36.894,2.39l6.779,4.423l8.261,19.505l-3.464,3.721L131.762,102.225z
	 M167.058,81.632l3.413-4.335l39.542,2.564l7.123,4.652l7.766,18.386l-3.568,3.837l-40.522-2.042l-5.651-3.928L167.058,81.632z
	 M220.608,85.227l3.512-4.456l36.159,2.347l6.598,4.307l7.617,18.021l-3.531,3.789l-35.904-1.807l-7.174-4.983L220.608,85.227z
	 M258.332,80.06l-36.268-2.343l-6.56-4.56l-7.524-17.806l3.01-3.816l37.428,2.929l6.271,4.089l7.389,17.496L258.332,80.06z
	 M212.406,73.335l-3.297,3.546l-40.299-2.618l-6.91-4.798l-7.745-18.295l3.035-3.843l41.727,3.266l5.354,3.492L212.406,73.335z
	 M158.848,69.741l-3.411,3.658l-36.832-2.387l-11.646-27.62l36.64,2.863l7.328,4.787L158.848,69.741z M114.638,108.811l-17.85-1.152
	l-4.225-2.937l-4.849-11.474l1.934-2.458l18.036,1.411L114.638,108.811z M90.565,104.833l-2.124,2.285l-25.965-1.685l-4.448-3.092
	l-4.991-11.789l1.955-2.477l26.883,2.104l3.445,2.251L90.565,104.833z M63.551,107.391l25.465,1.649l4.592,2.996l5.005,11.843
	l-2.303,2.473l-26.101-1.316l-3.645-2.524l-5.213-12.332L63.551,107.391z M71.944,127.014l25.647,1.287l3.996,2.612l4.867,11.512
	l-1.967,2.11l-26.102-0.951l-4.105-2.85l-4.596-10.861L71.944,127.014z M103.905,131.549l2.216-2.818l17.224,0.87l6.64,15.862
	l-17.686-0.643l-3.941-2.739L103.905,131.549z M133.023,105.215l35.979,1.813l7.789,5.082l7.339,17.332l-3.332,3.58l-36.62-1.333
	L133.023,105.215z M179.999,112.198l3.508-4.444l39.803,2.008l6.204,4.049l7.561,17.87l-3.053,3.275l-40.518-1.473l-6.37-4.427
	L179.999,112.198z M233.113,114.8l3.446-4.373l35.589,1.794l7.192,4.694l6.687,15.834l-3.686,3.962l-36.205-1.314l-6.121-4.25
	L233.113,114.8z M320.021,111.704l-36.096-1.821l-6.196-4.304l-7.459-17.651l3.13-3.962l35.739,2.315L320.021,111.704z
	 M307.845,83.267l-35.548-2.3l-7.038-4.888l-7.033-16.654l3.116-3.952l35.801,2.803L307.845,83.267z M287.02,34.622l8.831,20.621
	l-35.16-2.754l-7.633-5.3l-7.175-16.968L287.02,34.622z M242.564,29.868l7.463,17.659l-3.593,3.85l-35.289-2.76l-8.511-5.914
	l-7.57-17.913L242.564,29.868z M191.733,24.434l8.033,18.999l-3.729,4.002l-40.135-3.142l-6.605-4.587l-8.784-20.749L191.733,24.434
	z M137.188,18.599l8.775,20.713l-3.646,3.916l-36.633-2.868L94.591,14.041L137.188,18.599z M100.841,75.85l6.025,14.399
	l-17.118-1.343l-5.481-3.809l-4.876-11.537L100.841,75.85z M77.249,73.33l5.175,12.236l-2.401,2.584l-25.857-2.026l-4.253-2.959
	L44.25,69.8L77.249,73.33z M14.665,66.638l27.444,2.937l5.651,13.343l-2.349,2.522l-23.602-1.844L14.665,66.638z M22.635,85.548
	l23.603,1.847l4.721,3.082l5.106,12.046l-2.201,2.356l-23.73-1.533L22.635,85.548z M30.954,105.279l23.766,1.538l4.368,2.851
	l5.32,12.563l-2.232,2.401l-23.567-1.188L30.954,105.279z M39.427,125.371l23.178,1.172l5.015,3.272l4.732,11.167l-2.145,2.304
	l-23.6-0.854L39.427,125.371z M55.099,162.564l-7.683-18.224l23.535,0.855l4.394,2.864l6.141,14.501H55.099V162.564z
	 M83.532,162.564l-5.89-13.919l2.457-3.116l24.749,0.903l4.56,2.977l5.568,13.155H83.532z M94.149,189.895l14.119-9.415l12.479,5.62
	L94.149,189.895z M125.539,184.132l-7.642-3.451l7.642,0.369V184.132z M125.539,177.278l-16.014-0.758l-2.459-8.305h18.473V177.278z
	 M143.186,181.886l-13.879,2.855v-3.51L143.186,181.886z M117.017,162.564l-5.271-12.47l2.62-3.319l16.42,0.598l6.362,15.191
	H117.017z M157.353,162.95l-11.919-28.285l36.535,1.328l6.814,4.446l9.535,22.514h-40.966V162.95z M201.488,162.95l-9.148-21.606
	l3.816-4.836l38.421,1.396l7.077,4.622l8.64,20.427h-48.806V162.95z M217.972,205.364l21.915-14.606l19.358,8.714L217.972,205.364z
	 M266.701,196.424l-11.867-5.347l11.867,0.56V196.424z M266.701,185.783l-24.873-1.175l-3.817-12.893h28.685v14.067H266.701z
	 M294.086,192.938l-21.537,4.429v-5.447L294.086,192.938z M253.467,162.95l-8.184-19.361l4.067-5.151l34.822,1.266l6.626,4.323
	l7.993,18.92h-45.325V162.95z M301.965,162.95l-7.735-18.313l3.506-4.437l35.028,1.272l9.19,21.477H301.965z"/>
</svg>
