<?xml version="1.0" encoding="utf-8"?>
<!-- Generator: Adobe Illustrator 16.0.0, SVG Export Plug-In . SVG Version: 6.00 Build 0)  -->
<!DOCTYPE svg PUBLIC "-//W3C//DTD SVG 1.1//EN" "http://www.w3.org/Graphics/SVG/1.1/DTD/svg11.dtd">
<svg version="1.1" id="Layer_1" xmlns="http://www.w3.org/2000/svg" xmlns:xlink="http://www.w3.org/1999/xlink" x="0px" y="0px"
	 width="77px" height="102px" viewBox="0 0 77 102" enable-background="new 0 0 77 102" xml:space="preserve">
<g>
	<path fill="#FFFFFF" d="M46.895,30.713L10.718,19.757l53.054-0.878l12.275,25.656l-25.421,1.308L46.895,30.713z M52.805,18.236
		c4.848,0,8.774-3.927,8.774-8.772c0-4.847-3.927-8.774-8.774-8.774s-8.771,3.927-8.771,8.774
		C44.034,14.309,47.957,18.236,52.805,18.236z M50.172,46.945l-7.231,53.933l18.856-33.985l8.993,32.882l5.479-53.493L50.172,46.945
		z M44.396,53.657h-2.144c-2.109,14.863-4.227,29.733-6.346,44.584l-0.209,1.511l-1.501-0.182c-3.62-0.419-7.136-0.622-10.669-0.622
		c-3.519,0-7.058,0.203-10.667,0.622l-1.505,0.182l-0.216-1.511C9.032,83.391,6.911,68.521,4.796,53.657H2.664
		c-1.077,0-1.933-1.086-1.933-2.402c0-1.332,0.861-2.424,1.933-2.424h41.754c1.075,0,1.938,1.092,1.938,2.424
		C46.361,52.571,45.493,53.657,44.396,53.657z M8.585,58.131c1.726-0.191,3.435-0.348,5.143-0.472
		c-0.1-1.334-0.186-2.664-0.287-4.002H7.949C8.169,55.151,8.383,56.645,8.585,58.131z M9.702,65.789
		c1.516-0.169,3.059-0.32,4.587-0.419c-0.12-1.528-0.221-3.068-0.336-4.603c-1.632,0.116-3.273,0.271-4.916,0.462
		C9.246,62.737,9.466,64.269,9.702,65.789z M14.827,73.048c-0.109-1.522-0.213-3.052-0.33-4.564
		c-1.456,0.106-2.906,0.24-4.366,0.401c0.202,1.512,0.416,3.024,0.635,4.527C12.115,73.261,13.471,73.14,14.827,73.048z
		 M11.85,81.052c1.177-0.133,2.346-0.239,3.515-0.325c-0.115-1.521-0.213-3.047-0.329-4.585c-1.27,0.106-2.548,0.219-3.829,0.356
		C11.42,78.024,11.63,79.522,11.85,81.052z M12.943,88.688c0.999-0.102,1.983-0.182,2.971-0.258
		c-0.115-1.534-0.22-3.072-0.333-4.603c-1.094,0.089-2.192,0.191-3.291,0.303C12.514,85.65,12.724,87.176,12.943,88.688z
		 M16.453,96.093c-0.109-1.512-0.213-3.037-0.323-4.55c-0.914,0.076-1.83,0.146-2.749,0.25c0.221,1.489,0.429,3.015,0.639,4.522
		C14.838,96.231,15.645,96.154,16.453,96.093z M16.844,57.464c1.714-0.085,3.426-0.143,5.141-0.174c0-1.206,0-2.409-0.004-3.633
		h-5.406C16.662,54.928,16.75,56.188,16.844,57.464z M17.387,65.166c1.534-0.071,3.071-0.116,4.598-0.129c0-1.543,0-3.078,0-4.624
		c-1.641,0.021-3.28,0.069-4.921,0.146C17.168,62.093,17.277,63.628,17.387,65.166z M17.936,72.837
		c1.358-0.048,2.708-0.092,4.049-0.114c0-1.521,0-3.061,0-4.567c-1.461,0.008-2.91,0.045-4.378,0.124
		C17.729,69.801,17.827,71.331,17.936,72.837z M18.476,80.535c1.17-0.066,2.339-0.087,3.509-0.109c0-1.535,0-3.057-0.011-4.582
		c-1.268,0.01-2.554,0.055-3.822,0.111C18.256,77.485,18.365,79.015,18.476,80.535z M21.985,91.272
		c-0.912,0.013-1.828,0.044-2.742,0.089c0.112,1.511,0.216,3.042,0.332,4.563c0.796-0.045,1.61-0.055,2.41-0.067
		C21.985,94.323,21.985,92.798,21.985,91.272z M21.992,83.542c-1.105,0.015-2.193,0.059-3.292,0.102l0.319,4.595
		c1-0.035,1.983-0.066,2.966-0.089C21.985,86.615,21.985,85.08,21.992,83.542z M27.847,91.361c-0.916-0.045-1.823-0.076-2.74-0.089
		c0,1.525,0,3.051,0,4.584c0.808,0.013,1.608,0.022,2.418,0.067C27.634,94.394,27.737,92.872,27.847,91.361z M28.402,83.644
		c-1.104-0.043-2.196-0.087-3.296-0.102c0,1.538,0,3.073,0,4.607c0.988,0.022,1.971,0.054,2.96,0.089L28.402,83.644z M28.937,75.955
		c-1.276-0.057-2.562-0.102-3.836-0.111c0,1.521,0,3.047,0,4.582c1.17,0.022,2.341,0.043,3.516,0.109
		C28.728,79.007,28.832,77.485,28.937,75.955z M29.485,68.279c-1.468-0.071-2.917-0.116-4.374-0.124c0,1.507,0,3.032,0,4.567
		c1.353,0.018,2.704,0.058,4.054,0.114C29.265,71.331,29.374,69.806,29.485,68.279z M30.023,60.567
		c-1.644-0.07-3.279-0.129-4.923-0.151v4.626c1.532,0.008,3.066,0.053,4.604,0.124C29.808,63.636,29.919,62.098,30.023,60.567z
		 M30.518,53.657h-5.417c0,1.227,0,2.427,0,3.638c1.726,0.035,3.434,0.084,5.147,0.169C30.337,56.188,30.424,54.933,30.518,53.657z
		 M33.719,91.793c-0.915-0.104-1.834-0.174-2.738-0.25c-0.123,1.513-0.221,3.038-0.337,4.55c0.803,0.066,1.614,0.139,2.417,0.223
		C33.292,94.803,33.501,93.282,33.719,91.793z M34.802,84.13c-1.103-0.111-2.203-0.214-3.295-0.303
		c-0.111,1.53-0.209,3.068-0.324,4.603c0.988,0.076,1.965,0.156,2.961,0.258C34.361,87.162,34.577,85.65,34.802,84.13z
		 M35.879,76.489c-1.274-0.134-2.561-0.241-3.834-0.348c-0.104,1.53-0.209,3.047-0.318,4.582c1.163,0.089,2.335,0.195,3.505,0.319
		C35.452,79.522,35.665,78.024,35.879,76.489z M36.983,68.885c-1.472-0.161-2.922-0.285-4.378-0.401
		c-0.116,1.513-0.21,3.042-0.325,4.564c1.341,0.092,2.687,0.213,4.043,0.364C36.539,71.904,36.752,70.396,36.983,68.885z
		 M38.066,61.229c-1.649-0.191-3.291-0.346-4.923-0.462c-0.115,1.534-0.214,3.074-0.325,4.603c1.517,0.099,3.061,0.25,4.595,0.419
		C37.626,64.269,37.84,62.737,38.066,61.229z M39.134,53.657h-5.497c-0.086,1.343-0.18,2.672-0.28,4.002
		c1.721,0.124,3.425,0.28,5.144,0.472C38.707,56.645,38.916,55.151,39.134,53.657z M32.423,42.776l1.753-9.862H21.244l-9.428-4.827
		l-1.532,12.938l9.422,2.642L32.423,42.776z"/>
</g>
</svg>
