<?xml version="1.0" encoding="utf-8"?>
<!-- Generator: Adobe Illustrator 16.2.0, SVG Export Plug-In . SVG Version: 6.00 Build 0)  -->
<!DOCTYPE svg PUBLIC "-//W3C//DTD SVG 1.1//EN" "http://www.w3.org/Graphics/SVG/1.1/DTD/svg11.dtd">
<svg version="1.1" id="Layer_1" xmlns="http://www.w3.org/2000/svg" xmlns:xlink="http://www.w3.org/1999/xlink" x="0px" y="0px"
	 width="100px" height="100px" viewBox="0 0 100 100" enable-background="new 0 0 100 100" xml:space="preserve">
<path fill="#FFFFFF" d="M-73.1,19.721c0,0-24.229-28.199-44.519,11.147C-125.93,46.962-139.267,58.07-151,65.209v43.51h400.5V75.336
	c-7.078-1.701-29.275-9.58-33.362-22.232c-3.479-10.579-8.019-31.682,11.147-33.383c0,0-24.172-28.199-44.527,11.147
	c-15.392,29.998-26.305,43.061-33.361,44.488h-11.131c-7.058-1.701-18.146-9.601-22.253-22.235
	c-3.479-10.597-8.019-31.679,11.147-33.38c0,0-24.21-28.22-44.527,11.127C67.202,60.866,56.36,73.95,49.271,75.378H38.134
	c-7.071-1.701-18.139-9.583-22.246-22.235c-3.462-10.58-8.025-31.661,11.138-33.384c0,0-24.211-28.199-44.5,11.147
	c-15.458,29.96-26.272,43.022-33.4,44.43h-11.116c-7.033-1.701-18.139-9.58-22.246-22.232C-87.679,42.482-92.305,21.422-73.1,19.721
	z"/>
</svg>
