<?xml version="1.0" encoding="utf-8"?>
<!-- Generator: Adobe Illustrator 16.2.0, SVG Export Plug-In . SVG Version: 6.00 Build 0)  -->
<!DOCTYPE svg PUBLIC "-//W3C//DTD SVG 1.1//EN" "http://www.w3.org/Graphics/SVG/1.1/DTD/svg11.dtd">
<svg version="1.1" id="Layer_1" xmlns="http://www.w3.org/2000/svg" xmlns:xlink="http://www.w3.org/1999/xlink" x="0px" y="0px"
	 width="51px" height="53px" viewBox="0 0 51 53" enable-background="new 0 0 51 53" xml:space="preserve">
<path fill="#FFFFFF" d="M-1.187,13.437C5.08,8.056,10.03,3.801,23.46,11.39c6.452,3.645,11.657,5.021,15.989,5.02
	c7.586,0,12.501-4.22,16.752-7.873c1.516-1.301,1.711-3.612,0.436-5.161s-3.538-1.749-5.054-0.445
	c-6.267,5.384-11.216,9.637-24.65,2.046C9.186-5.048,0.874,2.094-5.805,7.83c-1.515,1.302-1.711,3.612-0.436,5.161
	C-4.966,14.54-2.704,14.74-1.187,13.437z M51.583,21.248c-6.267,5.383-11.216,9.636-24.65,2.047
	C9.186,13.269,0.874,20.41-5.805,26.147c-1.515,1.302-1.711,3.613-0.436,5.16c1.275,1.549,3.538,1.749,5.054,0.447
	c6.267-5.383,11.217-9.637,24.647-2.049c6.452,3.645,11.657,5.021,15.989,5.021c7.586,0,12.501-4.221,16.752-7.873
	c1.516-1.303,1.711-3.613,0.436-5.161C55.361,20.143,53.099,19.944,51.583,21.248z M51.583,39.563
	c-6.267,5.383-11.216,9.637-24.65,2.047C9.186,31.584,0.874,38.725-5.805,44.463c-1.515,1.302-1.711,3.613-0.436,5.162
	c1.275,1.547,3.538,1.747,5.054,0.444c6.267-5.384,11.216-9.636,24.647-2.049c6.452,3.646,11.657,5.021,15.989,5.021
	c7.586,0,12.501-4.221,16.752-7.873c1.516-1.301,1.711-3.613,0.436-5.161S53.099,38.261,51.583,39.563z"/>
</svg>
