<?xml version="1.0" encoding="utf-8"?>
<!-- Generator: Adobe Illustrator 16.2.0, SVG Export Plug-In . SVG Version: 6.00 Build 0)  -->
<!DOCTYPE svg PUBLIC "-//W3C//DTD SVG 1.1//EN" "http://www.w3.org/Graphics/SVG/1.1/DTD/svg11.dtd">
<svg version="1.1" id="Layer_1" xmlns="http://www.w3.org/2000/svg" xmlns:xlink="http://www.w3.org/1999/xlink" x="0px" y="0px"
	 width="70px" height="70px" viewBox="0 0 70 70" enable-background="new 0 0 70 70" xml:space="preserve">
<path fill="#FFFFFF" d="M40.056,28.105c-0.814-8.625-3-29.388-5.184-29.388c-2.183,0-4.369,20.763-5.181,29.388
	c1.418-1.139,3.218-1.823,5.181-1.823C36.835,26.282,38.634,26.966,40.056,28.105z"/>
<path fill="#FFFFFF" d="M37.716,42.883c7.84,3.684,26.836,12.346,27.945,10.467c1.109-1.881-15.664-14.313-22.682-19.395
	c0.262,1.801-0.063,3.699-1.061,5.389C40.923,41.037,39.419,42.236,37.716,42.883z"/>
<path fill="#FFFFFF" d="M26.846,33.932c-7.004,5.1-23.748,17.57-22.633,19.449c1.113,1.877,20.087-6.832,27.919-10.535
	c-1.702-0.639-3.21-1.836-4.211-3.525C26.92,37.631,26.591,35.736,26.846,33.932z"/>
</svg>
