<?xml version="1.0" encoding="utf-8"?>
<!-- Generator: Adobe Illustrator 16.2.0, SVG Export Plug-In . SVG Version: 6.00 Build 0)  -->
<!DOCTYPE svg PUBLIC "-//W3C//DTD SVG 1.1//EN" "http://www.w3.org/Graphics/SVG/1.1/DTD/svg11.dtd">
<svg version="1.1" id="Layer_1" xmlns="http://www.w3.org/2000/svg" xmlns:xlink="http://www.w3.org/1999/xlink" x="0px" y="0px"
	 width="57px" height="30px" viewBox="0 0 57 30" enable-background="new 0 0 57 30" xml:space="preserve">
<g>
	<g>
		<path fill="#FFFFFF" d="M53.674,5.839c-1.747-2.43-4.421-4.235-7.33-4.954c-0.976-0.251-1.994-0.379-3.025-0.379
			c-2.119,0-4.092,0.558-5.695,1.608c-2.588,1.629-4.359,4.396-4.736,7.383c-0.496,3.06,0.801,6.31,3.221,8.082
			c1.39,1.051,3.213,1.653,5.002,1.653c1.348,0,2.594-0.334,3.599-0.959c2.746-1.653,3.952-5.254,2.688-8.028
			c-0.647-1.41-1.916-2.509-3.393-2.937C43.57,7.18,43.13,7.109,42.693,7.094l-0.053,0.999c0.362,0.026,0.719,0.1,1.063,0.221
			c1.156,0.394,2.121,1.304,2.582,2.443c0.23,0.547,0.348,1.142,0.335,1.72c-0.013,0.629-0.121,1.207-0.341,1.813
			c-0.436,1.144-1.281,2.146-2.331,2.752c-1.888,1.146-4.896,0.796-6.835-0.767c-1.912-1.522-2.854-4.021-2.456-6.532
			c0.331-2.466,1.811-4.727,3.964-6.051c1.021-0.646,2.219-1.067,3.469-1.22c0.52-0.066,1.217-0.076,1.891-0.024
			c0.644,0.057,1.293,0.166,1.881,0.315c2.457,0.632,4.712,2.181,6.19,4.257c1.538,2.082,2.267,4.589,2.103,7.258
			c-0.107,2.592-0.996,5.205-2.504,7.358c-1.5,2.162-3.659,3.927-6.086,4.97c-1.114,0.487-2.403,0.84-3.83,1.047
			c-0.883,0.125-1.832,0.146-2.979,0.164L6.38,28.246L0.898,28.46l0.02,1l36.59,0.024c0.422,0,0.846,0,1.266,0.004l0.781,0.005
			c0.705,0,1.541-0.013,2.389-0.109c1.537-0.19,2.99-0.571,4.313-1.134c2.744-1.141,5.2-3.107,6.914-5.539
			c1.733-2.428,2.771-5.398,2.922-8.354C56.305,11.331,55.423,8.225,53.674,5.839z"/>
	</g>
	<g>
		<path fill="#FFFFFF" d="M20.479,25.956c0.122-0.005,0.269-0.007,0.41-0.007l1.001,0.012c0.281,0.005,0.544,0.01,0.808,0.01
			c0.515,0,1.197-0.015,1.919-0.119c1.402-0.229,2.73-0.822,3.836-1.713c2.275-1.793,3.47-4.779,3.045-7.609
			c-0.436-2.877-2.934-5.276-5.8-5.58c-1.57-0.193-3.019,0.18-4.119,1.033c-1.186,0.887-1.965,2.223-2.135,3.648
			c-0.226,1.485,0.332,3.05,1.409,3.978c1.067,0.973,2.837,1.367,4.116,0.927c0.938-0.313,1.732-1.066,2.126-2.017l-0.906-0.42
			c-0.334,0.646-0.937,1.125-1.611,1.278c-0.224,0.051-0.426,0.075-0.619,0.075c-0.796,0-1.611-0.344-2.131-0.899
			c-0.705-0.735-0.965-1.675-0.753-2.714c0.192-0.934,0.792-1.858,1.562-2.413c0.818-0.584,1.707-0.788,2.822-0.626
			c2.045,0.265,3.788,2.012,4.059,4.087c0.367,2.085-0.528,4.415-2.238,5.808c-0.843,0.711-1.874,1.193-2.985,1.397
			c-0.454,0.089-0.905,0.104-1.406,0.118L3.675,24.715c-0.911,0.08-1.854,0.149-2.798,0.219l0.035,0.998L20.479,25.956z"/>
	</g>
</g>
</svg>
