<?xml version="1.0" encoding="utf-8"?>
<!-- Generator: Adobe Illustrator 16.2.0, SVG Export Plug-In . SVG Version: 6.00 Build 0)  -->
<!DOCTYPE svg PUBLIC "-//W3C//DTD SVG 1.1//EN" "http://www.w3.org/Graphics/SVG/1.1/DTD/svg11.dtd">
<svg version="1.1" id="Layer_1" xmlns="http://www.w3.org/2000/svg" xmlns:xlink="http://www.w3.org/1999/xlink" x="0px" y="0px"
	 width="41px" height="66px" viewBox="0 0 41 66" enable-background="new 0 0 41 66" xml:space="preserve">
<g>
	<path fill="#7DBB00" d="M19.079,29.727v20.382h1.801V29.727c4.259-0.893,8.396-7.669,8.396-7.669v-8.829
		c0-1.708-1.191-3.133-2.791-3.509V2.03c0-1.116-0.905-2.03-2.021-2.03c-1.125,0-2.042,0.915-2.042,2.03v7.58h-5.561V2.03
		c0-1.116-0.915-2.03-2.041-2.03c-1.113,0-2.021,0.915-2.021,2.03v7.922c-1.246,0.574-2.119,1.822-2.119,3.277v8.829
		C10.681,22.058,14.82,28.845,19.079,29.727L19.079,29.727z"/>
	<path fill="#7DBB00" d="M39.283,32.045c-0.242-0.099-0.641-0.309-1.104-0.431c-0.464-0.132-1.093-0.354-1.744-0.408
		c-0.649-0.066-1.379-0.091-2.185-0.043c-0.783,0.054-1.577,0.22-2.428,0.441c-0.86,0.218-1.634,0.595-2.472,0.993
		c-0.807,0.417-1.557,0.926-2.295,1.486c-0.707,0.586-1.369,1.228-1.977,1.923c-0.563,0.695-1.137,1.426-1.566,2.193
		c-0.44,0.765-0.828,1.56-1.115,2.361c-0.596,1.604-0.826,3.246-0.859,4.715c0.011,0.738,0.055,1.424,0.145,2.063
		c0.076,0.627,0.23,1.212,0.353,1.675c0.056,0.221,0.121,0.434,0.188,0.621c0.121-0.257,0.252-0.519,0.396-0.806
		c0.729-1.435,1.776-3.288,3.002-5.032c0.617-0.871,1.291-1.713,1.942-2.461c0.34-0.354,0.684-0.706,0.992-1.039
		c0.342-0.307,0.662-0.597,0.961-0.857c0.315-0.244,0.616-0.463,0.871-0.654c0.241-0.207,0.506-0.328,0.705-0.449
		c0.397-0.23,0.619-0.378,0.619-0.378s-0.211,0.157-0.586,0.435c-0.188,0.131-0.43,0.271-0.661,0.492
		c-0.243,0.213-0.521,0.455-0.806,0.706c-0.276,0.29-0.563,0.597-0.872,0.919c-0.287,0.354-0.585,0.717-0.905,1.09
		c-0.585,0.799-1.17,1.654-1.699,2.563c-1.069,1.785-1.941,3.684-2.537,5.131c-0.088,0.232-0.176,0.428-0.254,0.63l1.201,0.052
		c0.354-0.106,0.729-0.229,1.104-0.386c0.563-0.221,1.171-0.472,1.776-0.771c0.618-0.278,1.215-0.62,1.832-0.973
		c0.618-0.354,1.202-0.75,1.776-1.172c0.563-0.428,1.114-0.857,1.622-1.343c0.508-0.496,1.004-0.96,1.445-1.504
		c0.904-1.022,1.666-2.126,2.295-3.288c0.32-0.549,0.586-1.182,0.851-1.755c0.274-0.57,0.496-1.211,0.728-1.787
		c0.223-0.574,0.432-1.159,0.619-1.72c0.209-0.572,0.387-1.084,0.529-1.5c0.165-0.41,0.275-0.838,0.363-1.092
		c0.089-0.287,0.145-0.441,0.145-0.441S39.537,32.156,39.283,32.045L39.283,32.045z"/>
	<path fill="#7DBB00" d="M16.033,49.292c-0.595-1.446-1.469-3.347-2.54-5.142c-0.527-0.897-1.124-1.767-1.708-2.553
		c-0.311-0.373-0.607-0.748-0.895-1.09c-0.307-0.334-0.604-0.641-0.871-0.919c-0.3-0.262-0.562-0.504-0.804-0.715
		c-0.231-0.224-0.476-0.353-0.665-0.496c-0.372-0.265-0.595-0.422-0.595-0.422s0.231,0.135,0.63,0.378
		c0.186,0.121,0.452,0.242,0.706,0.438c0.254,0.203,0.539,0.422,0.874,0.666c0.285,0.262,0.604,0.552,0.948,0.857
		c0.319,0.333,0.649,0.676,1.002,1.039c0.653,0.748,1.325,1.576,1.933,2.449c1.235,1.744,2.284,3.609,3,5.044
		c0.155,0.287,0.276,0.549,0.397,0.806c0.066-0.188,0.145-0.4,0.188-0.621c0.122-0.475,0.276-1.06,0.364-1.675
		c0.087-0.64,0.133-1.323,0.133-2.075c-0.022-1.455-0.254-3.111-0.863-4.701c-0.272-0.804-0.66-1.599-1.112-2.362
		c-0.433-0.78-0.994-1.498-1.556-2.204c-0.618-0.686-1.28-1.326-1.975-1.912c-0.75-0.561-1.492-1.081-2.297-1.486
		c-0.838-0.408-1.609-0.775-2.47-0.993c-0.851-0.221-1.644-0.387-2.427-0.453c-0.805-0.036-1.545-0.011-2.194,0.045
		c-0.642,0.066-1.272,0.272-1.747,0.418c-0.463,0.122-0.847,0.317-1.101,0.42C0.144,32.156,0,32.232,0,32.232
		s0.045,0.155,0.132,0.442c0.1,0.253,0.21,0.681,0.377,1.104c0.141,0.406,0.318,0.916,0.516,1.5c0.19,0.561,0.398,1.135,0.63,1.711
		c0.231,0.585,0.452,1.211,0.717,1.785c0.266,0.574,0.539,1.217,0.862,1.754c0.627,1.174,1.39,2.263,2.293,3.3
		c0.429,0.532,0.938,0.996,1.435,1.491c0.509,0.486,1.071,0.918,1.633,1.345c0.574,0.422,1.159,0.815,1.766,1.17
		c0.62,0.353,1.227,0.694,1.841,0.985c0.608,0.287,1.204,0.537,1.766,0.761c0.388,0.151,0.762,0.272,1.116,0.383l1.192-0.04
		C16.208,49.721,16.122,49.514,16.033,49.292L16.033,49.292z"/>
	<path fill="#7DBB00" d="M8.717,53.089c-1.655,0-2.968,0.552-3.917,1.646c-0.961,1.092-1.436,2.593-1.436,4.502
		c0,1.863,0.52,3.328,1.545,4.389c1.029,1.061,2.45,1.592,4.271,1.592c0.795,0,1.5-0.059,2.13-0.18
		c0.619-0.121,1.226-0.328,1.842-0.618v-2.017c-0.695,0.309-1.333,0.517-1.93,0.65c-0.596,0.133-1.237,0.195-1.933,0.195
		c-1.048,0-1.864-0.307-2.438-0.915c-0.584-0.618-0.895-1.476-0.926-2.615h7.8v-1.344c0-1.646-0.44-2.937-1.345-3.873
		C11.485,53.563,10.263,53.089,8.717,53.089L8.717,53.089z M5.968,57.921c0.091-0.96,0.376-1.698,0.851-2.198
		c0.485-0.505,1.116-0.746,1.898-0.746c0.795,0,1.413,0.241,1.866,0.735c0.452,0.511,0.683,1.238,0.706,2.209H5.968L5.968,57.921z"
		/>
	<path fill="#7DBB00" d="M20.909,55.162c0.687,0,1.558,0.208,2.604,0.619l0.752-2.008c-0.982-0.453-2.098-0.686-3.333-0.686
		c-1.819,0-3.212,0.526-4.181,1.586c-0.961,1.059-1.435,2.57-1.435,4.538c0,1.929,0.452,3.421,1.379,4.458
		c0.915,1.025,2.262,1.545,4.038,1.545c0.718,0,1.326-0.059,1.832-0.166c0.51-0.109,0.982-0.298,1.425-0.563V62.32
		c-0.993,0.543-2.03,0.815-3.146,0.815c-0.971,0-1.711-0.329-2.218-0.979c-0.508-0.664-0.75-1.644-0.75-2.956
		C17.876,56.51,18.893,55.162,20.909,55.162L20.909,55.162z"/>
	<path fill="#7DBB00" d="M31.085,53.089c-1.776,0-3.146,0.526-4.116,1.597c-0.971,1.073-1.467,2.553-1.467,4.446
		c0,1.218,0.23,2.3,0.684,3.216c0.453,0.924,1.094,1.645,1.933,2.129c0.839,0.496,1.81,0.739,2.901,0.739
		c1.754,0,3.123-0.532,4.095-1.603c0.981-1.079,1.479-2.572,1.479-4.481c0-1.851-0.497-3.317-1.489-4.409
		C34.119,53.641,32.773,53.089,31.085,53.089L31.085,53.089z M31.063,63.186c-1.996,0-3-1.349-3-4.054
		c0-1.29,0.242-2.28,0.705-2.976c0.476-0.686,1.226-1.037,2.272-1.037c1.987,0,2.979,1.346,2.979,4.013
		C34.021,61.837,33.038,63.186,31.063,63.186L31.063,63.186z"/>
</g>
</svg>
